<svg xmlns="http://www.w3.org/2000/svg" viewBox="0 0 24 24" fill="none">

<symbol id="icon-home" viewBox="0 0 24 24">
<path stroke="none" d="M0 0h24v24H0z" fill="none"/><path d="M12.707 2.293l9 9c.63 .63 .184 1.707 -.707 1.707h-1v6a3 3 0 0 1 -3 3h-1v-7a3 3 0 0 0 -2.824 -2.995l-.176 -.005h-2a3 3 0 0 0 -3 3v7h-1a3 3 0 0 1 -3 -3v-6h-1c-.89 0 -1.337 -1.077 -.707 -1.707l9 -9a1 1 0 0 1 1.414 0m.293 11.707a1 1 0 0 1 1 1v7h-4v-7a1 1 0 0 1 .883 -.993l.117 -.007z" />
</symbol>

<symbol id="stt" viewBox="0 0 24 24">
<path stroke="none" d="M0 0h24v24H0z" fill="none"/><path d="M14.647 4.081a.724 .724 0 0 0 1.08 .448c2.439 -1.485 5.23 1.305 3.745 3.744a.724 .724 0 0 0 .447 1.08c2.775 .673 2.775 4.62 0 5.294a.724 .724 0 0 0 -.448 1.08c1.485 2.439 -1.305 5.23 -3.744 3.745a.724 .724 0 0 0 -1.08 .447c-.673 2.775 -4.62 2.775 -5.294 0a.724 .724 0 0 0 -1.08 -.448c-2.439 1.485 -5.23 -1.305 -3.745 -3.744a.724 .724 0 0 0 -.447 -1.08c-2.775 -.673 -2.775 -4.62 0 -5.294a.724 .724 0 0 0 .448 -1.08c-1.485 -2.439 1.305 -5.23 3.744 -3.745a.722 .722 0 0 0 1.08 -.447c.673 -2.775 4.62 -2.775 5.294 0zm-2.647 4.919a3 3 0 1 0 0 6a3 3 0 0 0 0 -6" />
</symbol>

<symbol id="hlp" viewBox="0 0 24 24">
<path d="M4 11a1 1 0 0 1 .117 1.993l-.117 .007h-1a1 1 0 0 1 -.117 -1.993l.117 -.007h1z" /><path d="M12 2a1 1 0 0 1 .993 .883l.007 .117v1a1 1 0 0 1 -1.993 .117l-.007 -.117v-1a1 1 0 0 1 1 -1z" /><path d="M21 11a1 1 0 0 1 .117 1.993l-.117 .007h-1a1 1 0 0 1 -.117 -1.993l.117 -.007h1z" /><path d="M4.893 4.893a1 1 0 0 1 1.32 -.083l.094 .083l.7 .7a1 1 0 0 1 -1.32 1.497l-.094 -.083l-.7 -.7a1 1 0 0 1 0 -1.414z" /><path d="M17.693 4.893a1 1 0 0 1 1.497 1.32l-.083 .094l-.7 .7a1 1 0 0 1 -1.497 -1.32l.083 -.094l.7 -.7z" /><path d="M14 18a1 1 0 0 1 1 1a3 3 0 0 1 -6 0a1 1 0 0 1 .883 -.993l.117 -.007h4z" /><path d="M12 6a6 6 0 0 1 3.6 10.8a1 1 0 0 1 -.471 .192l-.129 .008h-6a1 1 0 0 1 -.6 -.2a6 6 0 0 1 3.6 -10.8z" />
</symbol>

<symbol id="usr" viewBox="0 0 24 24">
<path stroke="none" d="M0 0h24v24H0z" fill="none"/><path d="M15 8c1.628 0 3.2 .787 4.707 2.293a1 1 0 0 1 -1.414 1.414c-.848 -.848 -1.662 -1.369 -2.444 -1.587l-.849 5.944v4.936a1 1 0 0 1 -2 0v-4h-2v4a1 1 0 0 1 -2 0v-4.929l-.85 -5.951c-.781 .218 -1.595 .739 -2.443 1.587a1 1 0 1 1 -1.414 -1.414c1.506 -1.506 3.08 -2.293 4.707 -2.293z" /><path d="M12 1a3 3 0 1 1 -3 3l.005 -.176a3 3 0 0 1 2.995 -2.824" />
</symbol>

<symbol id="inv" viewBox="0 0 24 24">
<path stroke="none" d="M0 0h24v24H0z" fill="none"/><path d="M12 2l.117 .007a1 1 0 0 1 .876 .876l.007 .117v4l.005 .15a2 2 0 0 0 1.838 1.844l.157 .006h4l.117 .007a1 1 0 0 1 .876 .876l.007 .117v9a3 3 0 0 1 -2.824 2.995l-.176 .005h-10a3 3 0 0 1 -2.995 -2.824l-.005 -.176v-14a3 3 0 0 1 2.824 -2.995l.176 -.005zm4 15h-2a1 1 0 0 0 0 2h2a1 1 0 0 0 0 -2m0 -4h-8a1 1 0 0 0 0 2h8a1 1 0 0 0 0 -2m-7 -7h-1a1 1 0 1 0 0 2h1a1 1 0 1 0 0 -2" /><path d="M19 7h-4l-.001 -4.001z" />
</symbol>


<symbol id="bil" viewBox="0 0 24 24">
<path stroke="none" d="M0 0h24v24H0z" fill="none"/>
<path d="M12 2l.117 .007a1 1 0 0 1 .876 .876l.007 .117v4l.005 .15a2 2 0 0 0 1.838 1.844l.157 .006h4l.117 .007a1 1 0 0 1 .876 .876l.007 .117v9a3 3 0 0 1 -2.824 2.995l-.176 .005h-10a3 3 0 0 1 -2.995 -2.824l-.005 -.176v-14a3 3 0 0 1 2.824 -2.995l.176 -.005zm2 15h-4a1 1 0 0 0 0 2h4a1 1 0 0 0 0 -2m-2 -7a1 1 0 0 0 -1 1v1h-1a1 1 0 0 0 0 2h1v1a1 1 0 0 0 2 0v-1h1a1 1 0 0 0 0 -2h-1v-1a1 1 0 0 0 -1 -1" />
<path d="M19 7h-4l-.001 -4.001z" />
</symbol>

<symbol id="pay" viewBox="0 0 24 24">
<path stroke="none" d="M0 0h24v24H0z" fill="none"/><path d="M12 2l.117 .007a1 1 0 0 1 .876 .876l.007 .117v4l.005 .15a2 2 0 0 0 1.838 1.844l.157 .006h4l.117 .007a1 1 0 0 1 .876 .876l.007 .117v9a3 3 0 0 1 -2.824 2.995l-.176 .005h-10a3 3 0 0 1 -2.995 -2.824l-.005 -.176v-14a3 3 0 0 1 2.824 -2.995l.176 -.005zm0 8a1 1 0 0 0 -1 1v.05a2.5 2.5 0 0 0 .5 4.95h1a.5 .5 0 1 1 0 1h-2.5a1 1 0 0 0 0 2h1a1 1 0 0 0 2 0v-.05a2.5 2.5 0 0 0 -.5 -4.95h-1a.5 .5 0 1 1 0 -1h2.5a1 1 0 0 0 0 -2h-1a1 1 0 0 0 -1 -1" /><path d="M19 7h-4l-.001 -4.001z" />
</symbol>

<symbol id="pbl" viewBox="0 0 24 24">
<path stroke="none" d="M0 0h24v24H0z" fill="none"/><path d="M17 2a3 3 0 0 1 3 3v16a1 1 0 0 1 -1.555 .832l-2.318 -1.545l-1.42 1.42a1 1 0 0 1 -1.32 .083l-.094 -.083l-1.293 -1.292l-1.293 1.292a1 1 0 0 1 -1.32 .083l-.094 -.083l-1.421 -1.42l-2.317 1.545l-.019 .012l-.054 .03l-.028 .017l-.054 .023l-.05 .023l-.049 .015l-.06 .019l-.052 .009l-.057 .011l-.084 .006l-.026 .003h-.022l-.049 -.003h-.039l-.013 -.003h-.016l-.041 -.008l-.038 -.005l-.015 -.005l-.018 -.002l-.034 -.011l-.04 -.01l-.019 -.007l-.015 -.004l-.029 -.013l-.04 -.015l-.021 -.011l-.013 -.005l-.028 -.016l-.036 -.018l-.014 -.01l-.018 -.01l-.038 -.027l-.022 -.014l-.01 -.009l-.02 -.014l-.045 -.041l-.012 -.008l-.024 -.024l-.035 -.039l-.02 -.02l-.007 -.011l-.011 -.012l-.032 -.045l-.02 -.025l-.012 -.019l-.03 -.054l-.017 -.028l-.023 -.054l-.023 -.05a1 1 0 0 1 -.034 -.108l-.01 -.057l-.01 -.053l-.009 -.132v-16a3 3 0 0 1 3 -3zm-5 3a1 1 0 0 0 -1 1a3 3 0 1 0 0 6v2c-.403 .013 -.75 -.18 -.934 -.5a1 1 0 0 0 -1.732 1a3 3 0 0 0 2.505 1.5l.161 -.001a1 1 0 1 0 2 .001l.176 -.005a3 3 0 0 0 -.176 -5.995v-2c.403 -.013 .75 .18 .934 .5a1 1 0 0 0 1.732 -1a3 3 0 0 0 -2.505 -1.5h-.161a1 1 0 0 0 -1 -1m1 7a1 1 0 0 1 0 2zm-2 -4v2a1 1 0 0 1 0 -2" />
</symbol>

<symbol id="odr" viewBox="0 0 24 24">
<path stroke="none" d="M0 0h24v24H0z" fill="none"/><path d="M12 2l.117 .007a1 1 0 0 1 .876 .876l.007 .117v4l.005 .15a2 2 0 0 0 1.838 1.844l.157 .006h4l.117 .007a1 1 0 0 1 .876 .876l.007 .117v9a3 3 0 0 1 -2.824 2.995l-.176 .005h-10a3 3 0 0 1 -2.995 -2.824l-.005 -.176v-14a3 3 0 0 1 2.824 -2.995l.176 -.005zm0 8a1 1 0 0 0 -1 1v3.585l-.793 -.792a1 1 0 0 0 -1.32 -.083l-.094 .083a1 1 0 0 0 0 1.414l2.5 2.5l.044 .042l.068 .055l.11 .071l.114 .054l.105 .035l.15 .03l.116 .006l.117 -.007l.117 -.02l.108 -.033l.081 -.034l.098 -.052l.092 -.064l.094 -.083l2.5 -2.5a1 1 0 0 0 0 -1.414l-.094 -.083a1 1 0 0 0 -1.32 .083l-.793 .791v-3.584a1 1 0 0 0 -.883 -.993zm2.999 -7.001l4.001 4.001h-4z" />
</symbol>

<symbol id="cus" viewBox="0 0 24 24">
<path stroke="none" d="M0 0h24v24H0z" fill="none"/><path d="M12 2a5 5 0 1 1 -5 5l.005 -.217a5 5 0 0 1 4.995 -4.783z" /><path d="M14 14a5 5 0 0 1 5 5v1a2 2 0 0 1 -2 2h-10a2 2 0 0 1 -2 -2v-1a5 5 0 0 1 5 -5h4z" />
</symbol>

<symbol id="sup" viewBox="0 0 24 24">
  <defs>
    <mask id="supplier-mask">
      <rect width="24" height="24" fill="white" />
      <rect x="13.5" y="13.5" width="10" height="10" rx="2.5" fill="black" />
    </mask>

    <mask id="box-mask">
      <rect x="14.5" y="14.5" width="8" height="8" fill="white" />
      <rect x="17.5" y="15.5" width="1.5" height="3" fill="black" />
    </mask>
  </defs>

  <path stroke="none" d="M0 0h24v24H0z" fill="none"/>
  
  <path d="M12 2a5 5 0 1 1 -5 5l.005 -.217a5 5 0 0 1 4.995 -4.783z" fill="currentColor" />
  
  <path d="M14 14a5 5 0 0 1 5 5v1a2 2 0 0 1 -2 2h-10a2 2 0 0 1 -2 -2v-1a5 5 0 0 1 5 -5h4z" 
        fill="currentColor" mask="url(#supplier-mask)" />
  
  <path d="M15.5 15.5h5.5a1 1 0 0 1 1 1v5a1 1 0 0 1 -1 1h-5.5a1 1 0 0 1 -1 -1v-5a1 1 0 0 1 1 -1z" 
        fill="currentColor" mask="url(#box-mask)" />
</symbol>

<symbol id="pro" viewBox="0 0 24 24">
<path stroke="none" d="M0 0h24v24H0z" fill="none"/><path d="M9 3h-4a2 2 0 0 0 -2 2v4a2 2 0 0 0 2 2h4a2 2 0 0 0 2 -2v-4a2 2 0 0 0 -2 -2z" /><path d="M9 13h-4a2 2 0 0 0 -2 2v4a2 2 0 0 0 2 2h4a2 2 0 0 0 2 -2v-4a2 2 0 0 0 -2 -2z" /><path d="M19 13h-4a2 2 0 0 0 -2 2v4a2 2 0 0 0 2 2h4a2 2 0 0 0 2 -2v-4a2 2 0 0 0 -2 -2z" /><path d="M17 3a1 1 0 0 1 .993 .883l.007 .117v2h2a1 1 0 0 1 .117 1.993l-.117 .007h-2v2a1 1 0 0 1 -1.993 .117l-.007 -.117v-2h-2a1 1 0 0 1 -.117 -1.993l.117 -.007h2v-2a1 1 0 0 1 1 -1z" />
</symbol>

<symbol id="stf" viewBox="0 0 24 24">
<path stroke="none" d="M0 0h24v24H0z" fill="none"/><path d="M17 3.34a10 10 0 1 1 -14.995 8.984l-.005 -.324l.005 -.324a10 10 0 0 1 14.995 -8.336zm-1.051 6.844a1 1 0 0 0 -1.152 -.663l-.113 .03l-2.684 .895l-2.684 -.895l-.113 -.03a1 1 0 0 0 -.628 1.884l.109 .044l2.316 .771v.976l-1.832 2.75l-.06 .1a1 1 0 0 0 .237 1.21l.1 .076l.101 .06a1 1 0 0 0 1.21 -.237l.076 -.1l1.168 -1.752l1.168 1.752l.07 .093a1 1 0 0 0 1.653 -1.102l-.059 -.1l-1.832 -2.75v-.977l2.316 -.771l.109 -.044a1 1 0 0 0 .524 -1.221zm-3.949 -4.184a1.5 1.5 0 1 0 0 3a1.5 1.5 0 0 0 0 -3" />
</symbol>

<symbol id="rep" viewBox="0 0 24 24">
<path stroke="none" d="M0 0h24v24H0z" fill="none"/>
  
  <path d="M7 3a4 4 0 1 1 -4 4h4v-4z" opacity="0.6" />
  <path d="M11 7a4 4 0 1 1 -4 -4v4h4z" />
  
  <path d="M8 17a1 1 0 0 1 1 1v3a1 1 0 0 1 -2 0v-3a1 1 0 0 1 1 -1z" />
  <path d="M12 13a1 1 0 0 1 1 1v7a1 1 0 0 1 -2 0v-7a1 1 0 0 1 1 -1z" />
  <path d="M16 14a1 1 0 0 1 1 1v6a1 1 0 0 1 -2 0v-6a1 1 0 0 1 1 -1z" />
  <path d="M20 12a1 1 0 0 1 1 1v8a1 1 0 0 1 -2 0v-8a1 1 0 0 1 1 -1z" />
</symbol>
<symbol id="win" viewBox="0 0 24 24">
<path stroke="none" d="M0 0h24v24H0z" fill="none"/><path d="M21 13v5c0 1.57 -1.248 2.832 -2.715 2.923l-.113 .003l-.042 .018a1 1 0 0 1 -.336 .056l-.118 -.008l-4.676 -.585v-7.407zm-10 0v7.157l-5.3 -.662c-1.514 -.151 -2.7 -1.383 -2.7 -2.895v-3.6zm0 -9.158v7.158h-8v-3.6c0 -1.454 1.096 -2.648 2.505 -2.87zm10 2.058v5.1h-8v-7.409l4.717 -.589c1.759 -.145 3.283 1.189 3.283 2.898" />
</symbol>
</svg>
