<svg xmlns="http://www.w3.org/2000/svg" viewBox="0 0 24 24" fill="none" stroke="currentColor" stroke-width="2" stroke-linecap="round" stroke-linejoin="round">
  <style>
    /* Mặc định ẩn tất cả các bản hiển thị */
    use { display: none; }
    /* Chỉ hiển thị bản được gọi qua ID trên URL */
    use:target { display: inline; }
    path, circle, line, polyline {
      stroke: 	#688b93; /* Màu bạn đã chỉ định */
      stroke-width: 1;
      stroke-linecap: round;
      stroke-linejoin: round;
      fill: none;
    }
    path[d^="M0 0h24v24"], path[d^="M0 0h24v24H0z"] {
      stroke: none !important;
    }
  </style>

  <symbol id="icon-note" viewBox="0 0 24 24">
    <path stroke="none" d="M0 0h24v24H0z" fill="none"/><path d="M4 20h4l10.5 -10.5a2.828 2.828 0 1 0 -4 -4l-10.5 10.5v4" /><path d="M13.5 6.5l4 4" />
  </symbol>
  <symbol id="icon-percent" viewBox="0 0 24 24">
    <path stroke="none" d="M0 0h24v24H0z" fill="none"/><path d="M16 17a1 1 0 1 0 2 0a1 1 0 1 0 -2 0" /><path d="M6 7a1 1 0 1 0 2 0a1 1 0 1 0 -2 0" /><path d="M6 18l12 -12" />
  </symbol>
  <symbol id="icon-ship" viewBox="0 0 24 24">
    <path stroke="none" d="M0 0h24v24H0z" fill="none"/><path d="M5 17a2 2 0 1 0 4 0a2 2 0 1 0 -4 0" /><path d="M15 17a2 2 0 1 0 4 0a2 2 0 1 0 -4 0" /><path d="M5 17h-2v-11a1 1 0 0 1 1 -1h9v12m-4 0h6m4 0h2v-6h-8m0 -5h5l3 5" />
  </symbol>
  <symbol id="icon-cash" viewBox="0 0 24 24">
    <path stroke="none" d="M0 0h24v24H0z" fill="none"/><path d="M3 12a9 9 0 1 0 18 0a9 9 0 1 0 -18 0" /><path d="M13.867 9.75c-.246 -.48 -.708 -.769 -1.2 -.75h-1.334c-.736 0 -1.333 .67 -1.333 1.5c0 .827 .597 1.499 1.333 1.499h1.334c.736 0 1.333 .671 1.333 1.5c0 .828 -.597 1.499 -1.333 1.499h-1.334c-.492 .019 -.954 -.27 -1.2 -.75" /><path d="M12 7v2" /><path d="M12 15v2" />
  </symbol>
  <symbol id="icon-blank" viewBox="0 0 24 24">
    <path stroke="none" d="M0 0h24v24H0z" fill="none"/>
    <path d="M15 8h.01" />
    <path d="M3 6a3 3 0 0 1 3 -3h12a3 3 0 0 1 3 3v12a3 3 0 0 1 -3 3h-12a3 3 0 0 1 -3 -3v-12" />
    <path d="M3 16l5 -5c.928 -.893 2.072 -.893 3 0l5 5" />
    <path d="M14 14l1 -1c.928 -.893 2.072 -.893 3 0l3 3" />
  </symbol>
  <symbol id="icon-total" viewBox="0 0 24 24">
    <path stroke="none" d="M0 0h24v24H0z" fill="none"/>
    <path d="M4 5a2 2 0 0 1 2 -2h12a2 2 0 0 1 2 2v14a2 2 0 0 1 -2 2h-12a2 2 0 0 1 -2 -2l0 -14" />
    <path d="M8 8a1 1 0 0 1 1 -1h6a1 1 0 0 1 1 1v1a1 1 0 0 1 -1 1h-6a1 1 0 0 1 -1 -1l0 -1" />
    <path d="M8 14l0 .01" />
    <path d="M12 14l0 .01" />
    <path d="M16 14l0 .01" />
    <path d="M8 17l0 .01" />
    <path d="M12 17l0 .01" />
    <path d="M16 17l0 .01" /> 
  </symbol>
  <use href="#icon-note" x="0" y="0" id="note"/>
  <use href="#icon-percent" x="0" y="0" id="percent" />
  <use href="#icon-ship" x="0" y="0" id="ship" />
  <use href="#icon-cash" x="0" y="0" id="cash" />
  <use href="#icon-blank" x="0" y="0" id="blank" />
  <use href="#icon-total" x="0" y="0" id="total" />
</svg>

