<svg xmlns="http://www.w3.org/2000/svg" viewBox="0 0 24 24" fill="none">

<symbol id="findcus" viewBox="0 0 24 24">
<path stroke="none" d="M0 0h24v24H0z" fill="none"/><path d="M8 7a4 4 0 1 0 8 0a4 4 0 0 0 -8 0" /><path d="M6 21v-2a4 4 0 0 1 4 -4h2.5" /><path d="M21.121 20.121a3 3 0 1 0 -4.242 0c.418 .419 1.125 1.045 2.121 1.879c1.051 -.89 1.759 -1.516 2.121 -1.879" /><path d="M19 18v.01" />
</symbol>

<symbol id="scn" viewBox="0 0 24 24">
<path stroke="none" d="M0 0h24v24H0z" fill="none"/><path d="M15 3a2 2 0 0 1 1.995 1.85l.005 .15a1 1 0 0 0 .883 .993l.117 .007h1a3 3 0 0 1 2.995 2.824l.005 .176v9a3 3 0 0 1 -2.824 2.995l-.176 .005h-14a3 3 0 0 1 -2.995 -2.824l-.005 -.176v-9a3 3 0 0 1 2.824 -2.995l.176 -.005h1a1 1 0 0 0 1 -1a2 2 0 0 1 1.85 -1.995l.15 -.005h6zm-3 7a3 3 0 0 0 -2.985 2.698l-.011 .152l-.004 .15l.004 .15a3 3 0 1 0 2.996 -3.15z" />
</symbol>

<symbol id="findinv" viewBox="0 0 24 24">
<path stroke="none" d="M0 0h24v24H0z" fill="none"/><path d="M3 12a9 9 0 1 0 18 0a9 9 0 1 0 -18 0" /><path d="M12 3l0 4" /><path d="M12 21l0 -3" /><path d="M3 12l4 0" /><path d="M21 12l-3 0" /><path d="M12 12l0 .01" />
</symbol>

<symbol id="mypos" viewBox="0 0 24 24">
<path stroke="none" d="M0 0h24v24H0z" fill="none"/><path d="M9 12a3 3 0 1 0 6 0a3 3 0 1 0 -6 0" /><path d="M4 12a8 8 0 1 0 16 0a8 8 0 1 0 -16 0" /><path d="M12 2l0 2" /><path d="M12 20l0 2" /><path d="M20 12l2 0" /><path d="M2 12l2 0" />
</symbol>

<symbol id="down" viewBox="0 0 24 24">
<path stroke="none" d="M0 0h24v24H0z" fill="none"/><path d="M17 13v-6l-5 4l-5 -4v6l5 4l5 -4" />
</symbol>

<symbol id="up" viewBox="0 0 24 24">
<path stroke="none" d="M0 0h24v24H0z" fill="none"/><path d="M17 11v6l-5 -4l-5 4v-6l5 -4l5 4" />
</symbol>

<symbol id="trash" viewBox="0 0 24 24">
<path stroke="none" d="M0 0h24v24H0z" fill="none"/><path d="M4 7h16" /><path d="M5 7l1 12a2 2 0 0 0 2 2h8a2 2 0 0 0 2 -2l1 -12" /><path d="M9 7v-3a1 1 0 0 1 1 -1h4a1 1 0 0 1 1 1v3" /><path d="M10 12l4 4m0 -4l-4 4" />
</symbol>

<symbol id="add" viewBox="0 0 24 24">
<path stroke="none" d="M0 0h24v24H0z" fill="none"/><path d="M12 5l0 14" /><path d="M5 12l14 0" />
</symbol>

<symbol id="printer" viewBox="0 0 24 24">
<path d="M19 8H5c-1.66 0-3 1.34-3 3v6h4v4h12v-4h4v-6c0-1.66-1.34-3-3-3zm-3 11H8v-5h8v5zm3-7c-.55 0-1-.45-1-1s.45-1 1-1 1 .45 1 1-.45 1-1 1z" />
<path d="M18 3H6c-1.1 0-2 .9-2 2v3h16V5c0-1.1-.9-2-2-2z" opacity="0.4" />
</symbol>

<symbol id="caretdown" viewBox="0 0 24 24">
<path stroke="none" d="M0 0h24v24H0z" fill="none"/><path d="M18 9c.852 0 1.297 .986 .783 1.623l-.076 .084l-6 6a1 1 0 0 1 -1.32 .083l-.094 -.083l-6 -6l-.083 -.094l-.054 -.077l-.054 -.096l-.017 -.036l-.027 -.067l-.032 -.108l-.01 -.053l-.01 -.06l-.004 -.057v-.118l.005 -.058l.009 -.06l.01 -.052l.032 -.108l.027 -.067l.07 -.132l.065 -.09l.073 -.081l.094 -.083l.077 -.054l.096 -.054l.036 -.017l.067 -.027l.108 -.032l.053 -.01l.06 -.01l.057 -.004l12.059 -.002z" />
</symbol>

<symbol id="close" viewBox="0 0 24 24">
<path stroke="none" d="M0 0h24v24H0z" fill="none"/><path d="M18 6l-12 12" /><path d="M6 6l12 12" />
</symbol>

<symbol id="backspace" viewBox="0 0 24 24">
<path stroke="none" d="M0 0h24v24H0z" fill="none"/><path d="M20 5a2 2 0 0 1 1.995 1.85l.005 .15v10a2 2 0 0 1 -1.85 1.995l-.15 .005h-11a1 1 0 0 1 -.608 -.206l-.1 -.087l-5.037 -5.04c-.809 -.904 -.847 -2.25 -.083 -3.23l.12 -.144l5 -5a1 1 0 0 1 .577 -.284l.131 -.009h11zm-7.489 4.14a1 1 0 0 0 -1.301 1.473l.083 .094l1.292 1.293l-1.292 1.293l-.083 .094a1 1 0 0 0 1.403 1.403l.094 -.083l1.293 -1.292l1.293 1.292l.094 .083a1 1 0 0 0 1.403 -1.403l-.083 -.094l-1.292 -1.293l1.292 -1.293l.083 -.094a1 1 0 0 0 -1.403 -1.403l-.094 .083l-1.293 1.292l-1.293 -1.292l-.094 -.083l-.102 -.07z" />
</symbol>

<symbol id="record" viewBox="0 0 24 24">
<path stroke="none" d="M0 0h24v24H0z" fill="none"/><path d="M3 8h18" /><path d="M3 16h18" /><path d="M8 3v18" /><path d="M16 3v18" />
</symbol>
<symbol id="record-date" viewBox="0 0 24 24">
<path stroke="none" d="M0 0h24v24H0z" fill="none"/><path d="M12 21h-6a2 2 0 0 1 -2 -2v-12a2 2 0 0 1 2 -2h12a2 2 0 0 1 2 2v5" /><path d="M16 3v4" /><path d="M8 3v4" /><path d="M4 11h16" /><path d="M17.001 19a2 2 0 1 0 4 0a2 2 0 1 0 -4 0" /><path d="M19.001 15.5v1.5" /><path d="M19.001 21v1.5" /><path d="M22.032 17.25l-1.299 .75" /><path d="M17.27 20l-1.3 .75" /><path d="M15.97 17.25l1.3 .75" /><path d="M20.733 20l1.3 .75" />
</symbol>
<symbol id="total" viewBox="0 0 24 24">
<path stroke="none" d="M0 0h24v24H0z" fill="none"/><path d="M21 15h-2.5c-.398 0 -.779 .158 -1.061 .439c-.281 .281 -.439 .663 -.439 1.061c0 .398 .158 .779 .439 1.061c.281 .281 .663 .439 1.061 .439h1c.398 0 .779 .158 1.061 .439c.281 .281 .439 .663 .439 1.061c0 .398 -.158 .779 -.439 1.061c-.281 .281 -.663 .439 -1.061 .439h-2.5" /><path d="M19 21v1m0 -8v1" /><path d="M13 21h-7c-.53 0 -1.039 -.211 -1.414 -.586c-.375 -.375 -.586 -.884 -.586 -1.414v-10c0 -.53 .211 -1.039 .586 -1.414c.375 -.375 .884 -.586 1.414 -.586h2m12 3.12v-1.12c0 -.53 -.211 -1.039 -.586 -1.414c-.375 -.375 -.884 -.586 -1.414 -.586h-2" /><path d="M16 10v-6c0 -.53 -.211 -1.039 -.586 -1.414c-.375 -.375 -.884 -.586 -1.414 -.586h-4c-.53 0 -1.039 .211 -1.414 .586c-.375 .375 -.586 .884 -.586 1.414v6m8 0h-8m8 0h1m-9 0h-1" /><path d="M8 14v.01" /><path d="M8 17v.01" /><path d="M12 13.99v.01" /><path d="M12 17v.01" />
</symbol>
</svg>